HIERARCHY
ROOT Bip01
{
  OFFSET 15.7446 31.5610 57.6474
  CHANNELS 6 Xposition Yposition Zposition Zrotation Xrotation Yrotation
  JOINT Bip01_Footsteps
  {
    OFFSET 53.2821 -0.0001 8.1953
    CHANNELS 6 Xposition Yposition Zposition Zrotation Xrotation Yrotation
    End Site
    {
      OFFSET 0 0 0
    }
  }
  JOINT b_Hips
  {
    OFFSET 0.0000 0.0000 0.0000
    CHANNELS 6 Xposition Yposition Zposition Zrotation Xrotation Yrotation
    JOINT b_Spine
    {
      OFFSET 10.4409 -1.6220 0.0000
      CHANNELS 6 Xposition Yposition Zposition Zrotation Xrotation Yrotation
      JOINT b_Spine1
      {
        OFFSET 8.8514 -0.0090 -0.0000
        CHANNELS 6 Xposition Yposition Zposition Zrotation Xrotation Yrotation
        JOINT b_Spine2
        {
          OFFSET 11.3035 -0.0088 0.0000
          CHANNELS 6 Xposition Yposition Zposition Zrotation Xrotation Yrotation
          JOINT b_Spine3
          {
            OFFSET 11.0297 -0.0113 0.0000
            CHANNELS 6 Xposition Yposition Zposition Zrotation Xrotation Yrotation
            JOINT b__Neck
            {
              OFFSET 14.9480 -3.1935 0.0000
              CHANNELS 6 Xposition Yposition Zposition Zrotation Xrotation Yrotation
              JOINT b__Neck1
              {
                OFFSET 5.4958 -0.0043 0.0000
                CHANNELS 6 Xposition Yposition Zposition Zrotation Xrotation Yrotation
                JOINT b__Neck2
                {
                  OFFSET 5.5266 -0.0049 -0.0000
                  CHANNELS 6 Xposition Yposition Zposition Zrotation Xrotation Yrotation
                  JOINT b_Head
                  {
                    OFFSET 6.1093 0.0000 -0.0000
                    CHANNELS 6 Xposition Yposition Zposition Zrotation Xrotation Yrotation
                    JOINT Bip01_HeadNub
                    {
                      OFFSET 28.6688 0.0000 0.0000
                      CHANNELS 6 Xposition Yposition Zposition Zrotation Xrotation Yrotation
                      End Site
                      {
                        OFFSET 0 0 0
                      }
                    }
                    JOINT Dog_Jaw
                    {
                      OFFSET 0.6075 2.3575 -0.0000
                      CHANNELS 6 Xposition Yposition Zposition Zrotation Xrotation Yrotation
                      End Site
                      {
                        OFFSET 0 0 0
                      }
                    }
                  }
                }
              }
            }
            JOINT b_LeftClav
            {
              OFFSET 10.4683 2.1257 3.5190
              CHANNELS 6 Xposition Yposition Zposition Zrotation Xrotation Yrotation
              JOINT b_LeftArm
              {
                OFFSET 7.3453 0.0000 0.0000
                CHANNELS 6 Xposition Yposition Zposition Zrotation Xrotation Yrotation
                JOINT b_LeftForeArm
                {
                  OFFSET 23.3863 -0.0000 0.0000
                  CHANNELS 6 Xposition Yposition Zposition Zrotation Xrotation Yrotation
                  JOINT b_LeftHand
                  {
                    OFFSET 21.5040 0.0000 -0.0000
                    CHANNELS 6 Xposition Yposition Zposition Zrotation Xrotation Yrotation
                    JOINT b__LeftFinger
                    {
                      OFFSET 1.5926 6.2126 -0.0138
                      CHANNELS 6 Xposition Yposition Zposition Zrotation Xrotation Yrotation
                      JOINT Bip01_L_Finger0Nub
                      {
                        OFFSET 23.3657 0.0000 0.0000
                        CHANNELS 6 Xposition Yposition Zposition Zrotation Xrotation Yrotation
                        End Site
                        {
                          OFFSET 0 0 0
                        }
                      }
                    }
                  }
                }
                JOINT Dog_LeftArmor002
                {
                  OFFSET 4.2035 4.4457 12.7354
                  CHANNELS 6 Xposition Yposition Zposition Zrotation Xrotation Yrotation
                  End Site
                  {
                    OFFSET 0 0 0
                  }
                }
              }
            }
            JOINT b_RightClav
            {
              OFFSET 10.4683 2.1257 -3.5189
              CHANNELS 6 Xposition Yposition Zposition Zrotation Xrotation Yrotation
              JOINT b_RightArm
              {
                OFFSET 7.3453 0.0000 -0.0000
                CHANNELS 6 Xposition Yposition Zposition Zrotation Xrotation Yrotation
                JOINT b_RightForeArm
                {
                  OFFSET 23.3863 0.0000 0.0000
                  CHANNELS 6 Xposition Yposition Zposition Zrotation Xrotation Yrotation
                  JOINT b_RightHand
                  {
                    OFFSET 21.5040 0.0000 0.0000
                    CHANNELS 6 Xposition Yposition Zposition Zrotation Xrotation Yrotation
                    JOINT b_RightFinger
                    {
                      OFFSET 1.5926 6.2126 0.0138
                      CHANNELS 6 Xposition Yposition Zposition Zrotation Xrotation Yrotation
                      JOINT Bip01_R_Finger0Nub
                      {
                        OFFSET 23.3657 0.0000 0.0000
                        CHANNELS 6 Xposition Yposition Zposition Zrotation Xrotation Yrotation
                        End Site
                        {
                          OFFSET 0 0 0
                        }
                      }
                    }
                  }
                }
                JOINT Dog_RightArmor002
                {
                  OFFSET 4.2034 4.4457 -12.7351
                  CHANNELS 6 Xposition Yposition Zposition Zrotation Xrotation Yrotation
                  End Site
                  {
                    OFFSET 0 0 0
                  }
                }
              }
            }
          }
        }
      }
    }
    JOINT b_Tail001
    {
      OFFSET -4.7889 3.8598 0.8608
      CHANNELS 6 Xposition Yposition Zposition Zrotation Xrotation Yrotation
      JOINT b_Tail002
      {
        OFFSET 4.2212 0.0000 -0.0000
        CHANNELS 6 Xposition Yposition Zposition Zrotation Xrotation Yrotation
        JOINT b_Tail003
        {
          OFFSET 4.9750 0.0000 -0.0000
          CHANNELS 6 Xposition Yposition Zposition Zrotation Xrotation Yrotation
          JOINT b_Tail004
          {
            OFFSET 4.7171 -0.0000 0.0000
            CHANNELS 6 Xposition Yposition Zposition Zrotation Xrotation Yrotation
            JOINT b_Tail005
            {
              OFFSET 9.7173 -0.0000 -0.0001
              CHANNELS 6 Xposition Yposition Zposition Zrotation Xrotation Yrotation
              JOINT b_Tail006
              {
                OFFSET 8.2617 0.0001 0.0000
                CHANNELS 6 Xposition Yposition Zposition Zrotation Xrotation Yrotation
                JOINT b_Tail007
                {
                  OFFSET 9.7599 -0.0001 0.0000
                  CHANNELS 6 Xposition Yposition Zposition Zrotation Xrotation Yrotation
                  JOINT b_Tail008
                  {
                    OFFSET 11.1530 0.0000 -0.0000
                    CHANNELS 6 Xposition Yposition Zposition Zrotation Xrotation Yrotation
                    JOINT b_Tail009
                    {
                      OFFSET 10.3039 0.0000 0.0000
                      CHANNELS 6 Xposition Yposition Zposition Zrotation Xrotation Yrotation
                      End Site
                      {
                        OFFSET 0 0 0
                      }
                    }
                  }
                }
              }
            }
          }
        }
      }
    }
    JOINT Dog_LeftTail001
    {
      OFFSET -11.9878 -1.7857 10.1900
      CHANNELS 6 Xposition Yposition Zposition Zrotation Xrotation Yrotation
      JOINT Dog_LeftTail002
      {
        OFFSET 8.4424 0.0000 0.0000
        CHANNELS 6 Xposition Yposition Zposition Zrotation Xrotation Yrotation
        JOINT Dog_LeftTail003
        {
          OFFSET 9.9501 0.0000 -0.0000
          CHANNELS 6 Xposition Yposition Zposition Zrotation Xrotation Yrotation
          JOINT Dog_LeftTail004
          {
            OFFSET 9.4342 0.0000 -0.0000
            CHANNELS 6 Xposition Yposition Zposition Zrotation Xrotation Yrotation
            JOINT Dog_LeftTail005
            {
              OFFSET 9.7173 0.0001 0.0001
              CHANNELS 6 Xposition Yposition Zposition Zrotation Xrotation Yrotation
              JOINT Dog_LeftTail006
              {
                OFFSET 8.2618 -0.0000 -0.0000
                CHANNELS 6 Xposition Yposition Zposition Zrotation Xrotation Yrotation
                JOINT Dog_LeftTail007
                {
                  OFFSET 9.7599 0.0000 0.0000
                  CHANNELS 6 Xposition Yposition Zposition Zrotation Xrotation Yrotation
                  JOINT Dog_LeftTail008
                  {
                    OFFSET 11.1529 -0.0001 -0.0001
                    CHANNELS 6 Xposition Yposition Zposition Zrotation Xrotation Yrotation
                    JOINT Dog_LeftTail009
                    {
                      OFFSET 10.3039 -0.0000 0.0000
                      CHANNELS 6 Xposition Yposition Zposition Zrotation Xrotation Yrotation
                      End Site
                      {
                        OFFSET 0 0 0
                      }
                    }
                  }
                }
              }
            }
          }
        }
      }
    }
    JOINT b_LeftLegUpper
    {
      OFFSET -0.0000 0.0000 9.9422
      CHANNELS 6 Xposition Yposition Zposition Zrotation Xrotation Yrotation
      JOINT b_LeftLeg
      {
        OFFSET 25.9795 0.0000 -0.0000
        CHANNELS 6 Xposition Yposition Zposition Zrotation Xrotation Yrotation
        JOINT b_LeftLeg1
        {
          OFFSET 21.2087 0.0000 -0.0000
          CHANNELS 6 Xposition Yposition Zposition Zrotation Xrotation Yrotation
          JOINT b_LeftAnkle
          {
            OFFSET 10.4341 -0.0000 0.0000
            CHANNELS 6 Xposition Yposition Zposition Zrotation Xrotation Yrotation
            JOINT b_LeftToe
            {
              OFFSET 5.6676 6.5983 0.0000
              CHANNELS 6 Xposition Yposition Zposition Zrotation Xrotation Yrotation
              JOINT Bip01_L_Toe0Nub
              {
                OFFSET 8.6279 0.0000 -0.0000
                CHANNELS 6 Xposition Yposition Zposition Zrotation Xrotation Yrotation
                End Site
                {
                  OFFSET 0 0 0
                }
              }
            }
            JOINT b_LeftToe002
            {
              OFFSET 5.6741 -2.3619 -0.5306
              CHANNELS 6 Xposition Yposition Zposition Zrotation Xrotation Yrotation
              End Site
              {
                OFFSET 0 0 0
              }
            }
          }
        }
      }
      JOINT Dog_LeftArmor001
      {
        OFFSET -2.6287 -3.4254 -3.1462
        CHANNELS 6 Xposition Yposition Zposition Zrotation Xrotation Yrotation
        End Site
        {
          OFFSET 0 0 0
        }
      }
    }
    JOINT b_RightLegUpper
    {
      OFFSET 0.0000 -0.0000 -9.9422
      CHANNELS 6 Xposition Yposition Zposition Zrotation Xrotation Yrotation
      JOINT b_RightLeg
      {
        OFFSET 25.9795 0.0000 0.0000
        CHANNELS 6 Xposition Yposition Zposition Zrotation Xrotation Yrotation
        JOINT b_RightLeg1
        {
          OFFSET 21.2087 0.0000 0.0000
          CHANNELS 6 Xposition Yposition Zposition Zrotation Xrotation Yrotation
          JOINT b_RightAnkle
          {
            OFFSET 10.4341 -0.0000 -0.0000
            CHANNELS 6 Xposition Yposition Zposition Zrotation Xrotation Yrotation
            JOINT b_RightToe
            {
              OFFSET 5.6676 6.5983 -0.0000
              CHANNELS 6 Xposition Yposition Zposition Zrotation Xrotation Yrotation
              JOINT Bip01_R_Toe0Nub
              {
                OFFSET 8.6279 -0.0000 0.0000
                CHANNELS 6 Xposition Yposition Zposition Zrotation Xrotation Yrotation
                End Site
                {
                  OFFSET 0 0 0
                }
              }
            }
            JOINT b_RightToe002
            {
              OFFSET 5.6741 -2.3620 0.5304
              CHANNELS 6 Xposition Yposition Zposition Zrotation Xrotation Yrotation
              End Site
              {
                OFFSET 0 0 0
              }
            }
          }
        }
      }
      JOINT Dog_RightArmor001
      {
        OFFSET -2.6288 -3.4254 3.1460
        CHANNELS 6 Xposition Yposition Zposition Zrotation Xrotation Yrotation
        End Site
        {
          OFFSET 0 0 0
        }
      }
    }
  }
}
MOTION
Frames: 4
Frame Time: 0.00833333
-37.4287 81.0141 129.508 81.446 -2.84208 -126.152 53.2821 -6.35e-05 8.19533 -90 -81.2558 -180 0 0 0 -89.9999 -1.62306e-14 -90 10.4409 -1.622 1.78e-05 -5.19395 -1.36146 -4.04766 8.8514 -0.0089989 7.10543e-15 -7.69216 0.78765 3.00009 11.3035 -0.0087814 7.10543e-15 -11.9425 0.0440296 1.63564 11.0297 -0.0113029 0 -9.78297 0.675592 -1.47126 14.948 -3.19349 8.6e-06 -34.8042 -38.7471 73.8747 5.49578 -0.0042877 0 10.4831 20.6065 -89.291 5.52657 -0.0048637 -7.10543e-15 1.2804 10.4246 -4.15589 6.10934 -1.42109e-14 -1.42109e-14 36.4554 -3.29476 -2.88845 28.6688 -7.10543e-15 0 7.95139e-16 -7.95139e-16 3.18055e-15 0.607494 2.35752 -7.6e-06 -156.427 -0.000147608 180 10.4683 2.1257 3.51896 163.186 8.82853 -100.018 7.34534 -7.10543e-15 1.9e-06 166.713 -75.2067 -100.399 23.3863 -1.9e-06 1e-06 -9.52131 -0.400321 -1.32621 21.504 1.42109e-14 -1.42109e-14 -104.286 -5.84 -0.911645 1.59262 6.21256 -0.0138378 -0.893212 0.93634 0.0850673 23.3657 7.10543e-15 1e-06 -3.18055e-15 0 -1.59028e-15 4.20345 4.44573 12.7354 172.377 0.21838 -87.1877 10.4683 2.12572 -3.51895 178.836 -15.6595 90.6365 7.34534 -3.55271e-15 -1.9e-06 -15.2287 80.3177 -58.6844 23.3863 1.9e-06 7.10543e-15 -35.4995 3.18055e-15 3.37934e-15 21.504 3.8e-06 1e-06 -143.089 -36.1184 -10.0369 1.59262 6.21257 0.0138388 -3.4282 0.838219 1.74839 23.3657 1.42109e-14 1e-06 180 1.90833e-14 -1.59028e-15 4.20337 4.4457 -12.7351 172.377 -0.218352 87.1876 -4.78895 3.85983 0.86083 -171.995 2.63555 23.3148 4.22117 3.815e-05 -5.7e-06 16.4484 4.85509 -13.354 4.97505 3.8e-06 -6.7e-06 -0.400866 29.0539 1.34319 4.7171 -1.145e-05 2.86e-05 1.59028e-15 -9.54166e-15 1.59028e-15 9.71734 -4.2e-05 -5.72e-05 1.59028e-15 0 -4.77083e-15 8.26175 8.01e-05 5.7e-06 3.18055e-15 0 -0 9.75986 -6.48e-05 2.86e-05 4.77083e-15 -3.18055e-15 -0 11.153 2.67e-05 -2.1e-05 3.18055e-15 -3.18055e-15 -1.59028e-15 10.3039 1.14e-05 4.2e-05 8.82781e-32 -3.18055e-15 1.59028e-15 -11.9878 -1.78568 10.19 170.606 3.62573 1.11034 8.44238 1.53e-05 4.2e-05 -6.36111e-15 -3.97569e-16 9.93923e-17 9.95005 7.6e-06 -2.86e-05 6.36111e-15 1.98785e-16 -8.44835e-16 9.43418 -1.42109e-14 -4.58e-05 -2.58627e-33 4.96962e-16 2.98177e-16 9.71733 6.87e-05 0.0001106 3.18055e-15 5.96354e-16 -3.47873e-16 8.26175 -2.29e-05 -4.77e-05 -9.31058e-33 4.47266e-16 1.19271e-15 9.75994 2.86e-05 3.05e-05 7.84503e-33 1.2921e-15 -3.47873e-16 11.1529 -7.25e-05 -5.91e-05 -5.43117e-33 1.04362e-15 2.98177e-16 10.3039 -7.6e-06 0 1.87074e-32 1.54058e-15 -6.95746e-16 -1.14e-05 1.53e-05 9.94222 -133.717 25.7523 -166.353 25.9795 1e-06 0 -89.2694 0.736267 -0.961151 21.2087 1.9e-06 -1e-06 120.254 0.912588 -31.8223 10.4341 -1.9e-06 1e-06 -28.8771 -3.80413 3.52892 5.66763 6.59832 0 76.7957 -2.56948 1.87811 8.62785 0 0 -180 2.06736e-14 -0 5.67414 -2.36194 -0.530567 -75.8081 4.38708 5.33411 -2.62874 -3.42539 -3.14618 29.7499 1.82752 90.2264 1.53e-05 -1.53e-05 -9.94222 -136.491 -31.3393 166.301 25.9795 0 1e-06 -80.5964 -1.90263 1.76847 21.2087 0 1.9e-06 119.905 5.41449 36.623 10.4341 -1.9e-06 -1e-06 -175.742 47.1821 152.649 5.66763 6.59831 0 101.358 31.154 -45.4151 8.62785 0 0 9.54166e-15 0 -4.77083e-15 5.67412 -2.36198 0.530356 -75.808 -4.38692 -5.33418 -2.62878 -3.42545 3.14601 29.7498 -1.82753 -90.2266
-37.6155 79.13 126.487 82.0546 -2.78283 -126.584 53.2821 -6.35e-05 8.19533 -90 -81.2558 -180 0 0 0 -89.9999 -5.43972e-14 -90 10.4409 -1.622 1.78e-05 -4.48094 -1.2247 -4.67015 8.8514 -0.0089989 0 -8.51896 0.746747 2.68329 11.3035 -0.0087814 7.10543e-15 -13.192 0.13428 1.39307 11.0297 -0.0113029 7.10543e-15 -9.08427 0.224038 -0.368585 14.948 -3.19349 8.6e-06 -29.4327 -36.0405 80.0913 5.49578 -0.0042877 0 7.73031 20.1296 -93.3998 5.52657 -0.0048637 -3.55271e-15 1.30721 11.2422 -4.45535 6.10934 0 -2.13163e-14 36.5859 -3.16423 -3.25999 28.6688 0 7.10543e-15 -1.59028e-15 3.97569e-16 -0 0.607494 2.35752 -7.6e-06 -156.427 -0.000147608 180 10.4683 2.1257 3.51896 166.478 7.66969 -98.7427 7.34534 0 1.9e-06 -179.159 -78.953 -84.6499 23.3863 -1.9e-06 1e-06 -15.7322 -0.254468 -1.36173 21.504 0 -7.10543e-15 -112.25 -5.65836 -1.71064 1.59262 6.21256 -0.0138378 -6.46367 7.19879 6.13644 23.3657 7.10543e-15 1e-06 -3.18055e-15 1.59028e-15 -7.95139e-16 4.20345 4.44573 12.7354 172.377 0.21838 -87.1877 10.4683 2.12572 -3.51895 -177.78 -22.1028 78.4653 7.34534 3.55271e-15 -1.9e-06 -38.5946 72.5719 -26.2447 23.3863 1.9e-06 0 -43.3339 5.56597e-15 -7.65321e-15 21.504 3.8e-06 1e-06 -142.117 -30.9435 -11.287 1.59262 6.21257 0.0138388 -8.6761 -5.55677 2.38926 23.3657 1.42109e-14 1e-06 180 2.8625e-14 7.95139e-15 4.20337 4.4457 -12.7351 172.377 -0.218352 87.1876 -4.78895 3.85983 0.86083 -173.644 2.64775 21.3339 4.22117 3.815e-05 -5.7e-06 20.0448 8.49346 -16.789 4.97505 3.8e-06 -6.7e-06 0.706973 29.0617 1.87182 4.7171 -1.145e-05 2.86e-05 1.59028e-15 3.18055e-15 3.18055e-15 9.71734 -4.2e-05 -5.72e-05 1.59028e-15 0 1.59028e-15 8.26175 8.01e-05 5.7e-06 1.59028e-15 3.18055e-15 3.18055e-15 9.75986 -6.48e-05 2.86e-05 -1.59028e-15 3.18055e-15 4.77083e-15 11.153 2.67e-05 -2.1e-05 -0 0 1.59028e-15 10.3039 1.14e-05 4.2e-05 -0 -6.36111e-15 -0 -11.9878 -1.78568 10.19 170.606 3.62573 1.11034 8.44238 1.53e-05 4.2e-05 -6.89673e-34 1.98785e-16 1.98785e-16 9.95005 7.6e-06 -2.86e-05 -1.20693e-33 1.98785e-16 3.47873e-16 9.43418 1.42109e-14 -4.58e-05 -6.36111e-15 7.45443e-16 1.49089e-16 9.71733 6.87e-05 0.0001106 -7.75882e-33 9.93923e-16 4.47266e-16 8.26175 -2.29e-05 -4.77e-05 3.18055e-15 -5.46658e-16 4.96962e-16 9.75994 2.86e-05 3.05e-05 3.18055e-15 5.46658e-16 4.96962e-17 11.1529 -7.25e-05 -5.91e-05 3.18055e-15 2.48481e-16 6.4605e-16 10.3039 -7.6e-06 -7.10543e-15 -3.18055e-15 -7.95139e-16 4.47266e-16 -1.14e-05 1.53e-05 9.94222 -135.198 27.7265 -165.453 25.9795 1e-06 0 -90.0977 0.750084 -0.950408 21.2087 1.9e-06 -1e-06 121.31 0.323882 -32.5579 10.4341 -1.9e-06 1e-06 -28.7146 -3.79412 3.53969 5.66763 6.59832 1.42109e-14 76.9125 -2.80274 2.00409 8.62785 -7.10543e-15 1.42109e-14 -180 -6.91771e-14 -0 5.67414 -2.36194 -0.530567 -75.8081 4.38708 5.33411 -2.62874 -3.42539 -3.14618 29.7499 1.82752 90.2264 1.53e-05 -1.53e-05 -9.94222 -138.4 -32.7067 165.288 25.9795 0 1e-06 -77.8009 -1.81413 1.85915 21.2087 7.10543e-15 1.9e-06 118.946 3.7089 36.3444 10.4341 -1.9e-06 -1e-06 -175.129 45.1254 152.835 5.66763 6.59831 0 101.205 30.7861 -44.6179 8.62785 0 1.42109e-14 6.36111e-15 1.59028e-15 -4.77083e-15 5.67412 -2.36198 0.530356 -75.808 -4.38692 -5.33418 -2.62878 -3.42545 3.14601 29.7498 -1.82753 -90.2266
-37.8351 77.3034 123.613 82.5545 -3.03894 -127.535 53.2821 -6.35e-05 8.19533 -90 -81.2558 -180 0 0 0 -89.9999 -4.1675e-14 -90 10.4409 -1.622 1.78e-05 -3.41502 -1.07047 -5.5073 8.8514 -0.0089989 -7.10543e-15 -9.24659 0.60602 2.51178 11.3035 -0.0087814 7.10543e-15 -14.5055 0.423636 1.33024 11.0297 -0.0113029 7.10543e-15 -7.92955 0.0303343 0.860625 14.948 -3.19349 8.6e-06 -28.3149 -35.4041 79.6374 5.49578 -0.0042877 0 5.01154 18.2763 -93.6432 5.52657 -0.0048637 -7.10543e-15 1.39572 11.7921 -4.51752 6.10934 0 -2.13163e-14 36.6933 -2.82489 -4.08895 28.6688 -7.10543e-15 0 1.59028e-15 7.95139e-16 -0 0.607494 2.35752 -7.6e-06 -156.427 -0.000147608 180 10.4683 2.1257 3.51896 169.997 5.3623 -97.4671 7.34534 7.10543e-15 1.9e-06 154.705 -81.5425 -106.381 23.3863 -1.9e-06 1e-06 -21.062 -0.126855 -1.37948 21.504 -1.42109e-14 7.10543e-15 -121.014 -5.33311 -2.55159 1.59262 6.21256 -0.0138378 -7.09193 19.6808 3.90725 23.3657 7.10543e-15 1e-06 -1.90833e-14 1.59028e-15 -1.19271e-15 4.20345 4.44573 12.7354 172.377 0.21838 -87.1877 10.4683 2.12572 -3.51895 -176.309 -25.4259 68.81 7.34534 3.55271e-15 -1.9e-06 -43.174 64.0509 -13.3336 23.3863 1.9e-06 0 -47.9529 0 1.28216e-14 21.504 3.8e-06 1e-06 -139.175 -25.0542 -8.8023 1.59262 6.21257 0.0138388 -9.64096 -8.57613 2.5042 23.3657 0 1e-06 180 -3.49861e-14 4.77083e-15 4.20337 4.4457 -12.7351 172.377 -0.218352 87.1876 -4.78895 3.85983 0.86083 -175.348 2.45946 19.3792 4.22117 3.815e-05 -5.7e-06 24.905 12.7071 -19.9305 4.97505 3.8e-06 -6.7e-06 1.80422 29.0797 2.38886 4.7171 -1.145e-05 2.86e-05 7.95139e-16 -6.36111e-15 1.59028e-15 9.71734 -4.2e-05 -5.72e-05 -7.95139e-16 -3.18055e-15 1.59028e-15 8.26175 8.01e-05 5.7e-06 -3.18055e-15 -6.36111e-15 -0 9.75986 -6.48e-05 2.86e-05 -7.95139e-16 -6.36111e-15 -0 11.153 2.67e-05 -2.1e-05 -1.59028e-15 -6.36111e-15 -0 10.3039 1.14e-05 4.2e-05 -2.38542e-15 -6.36111e-15 -0 -11.9878 -1.78568 10.19 170.606 3.62573 1.11034 8.44238 1.53e-05 4.2e-05 1.61642e-33 2.48481e-16 -3.72721e-16 9.95005 7.6e-06 -2.86e-05 1.37719e-32 4.47266e-16 -1.76421e-15 9.43418 -1.42109e-14 -4.58e-05 -3.18055e-15 1.73937e-16 -4.22417e-16 9.71733 6.87e-05 0.0001106 9.15972e-34 4.22417e-16 -1.2424e-16 8.26175 -2.29e-05 -4.77e-05 -6.36111e-15 3.97569e-16 -1.49089e-16 9.75994 2.86e-05 3.05e-05 1.03451e-33 3.97569e-16 -1.49089e-16 11.1529 -7.25e-05 -5.91e-05 3.18055e-15 -4.22417e-16 -1.98785e-16 10.3039 -7.6e-06 0 3.18055e-15 -4.22417e-16 -1.98785e-16 -1.14e-05 1.53e-05 9.94222 -136.36 29.2943 -165.079 25.9795 1e-06 -1.42109e-14 -90.2493 0.752597 -0.948419 21.2087 1.9e-06 -1e-06 122.385 -0.332472 -33.2372 10.4341 -1.9e-06 1e-06 -28.3849 -3.77371 3.56144 5.66763 6.59832 0 77.1178 -3.21129 2.20046 8.62785 -3.55271e-15 1.42109e-14 -180 -8.0309e-14 -3.18055e-15 5.67414 -2.36194 -0.530567 -75.8081 4.38708 5.33411 -2.62874 -3.42539 -3.14618 29.7499 1.82752 90.2264 1.53e-05 -1.53e-05 -9.94222 -140.173 -33.4908 164.254 25.9795 -1.42109e-14 1e-06 -74.0949 -1.69018 1.9725 21.2087 0 1.9e-06 117.006 1.94361 36.7404 10.4341 -1.9e-06 -1e-06 -174.749 42.9164 153.746 5.66763 6.59831 0 100.816 30.7408 -43.8109 8.62785 0 7.10543e-15 2.64834e-31 -3.18055e-15 4.77083e-15 5.67412 -2.36198 0.530355 -75.808 -4.38692 -5.33418 -2.62878 -3.42545 3.14601 29.7498 -1.82753 -90.2266
-38.0888 75.5659 120.952 82.8737 -3.68803 -129.402 53.2821 -6.35e-05 8.19533 -90 -81.2558 -180 0 0 0 -89.9999 -4.1675e-14 -90 10.4409 -1.622 1.78e-05 -1.72249 -0.990082 -6.35978 8.8514 -0.0089989 0 -9.69951 0.289447 2.46779 11.3035 -0.0087814 0 -15.7957 0.457653 1.34757 11.0297 -0.0113029 0 -6.67669 -0.0457006 1.73501 14.948 -3.19349 8.6e-06 -29.2352 -35.0344 75.8136 5.49578 -0.0042877 -7.10543e-15 1.11059 15.2516 -91.3813 5.52657 -0.0048637 -7.10543e-15 1.54379 12.7174 -4.6712 6.10934 1.42109e-14 -1.42109e-14 36.8494 -2.35556 -5.16978 28.6688 0 -7.10543e-15 3.18055e-15 4.77083e-15 3.18055e-15 0.607494 2.35752 -7.6e-06 -156.427 -0.000147608 180 10.4683 2.1257 3.51896 174.808 4.12879 -94.5166 7.34534 3.55271e-15 1.9e-06 157.321 -83.6343 -101.242 23.3863 -1.9e-06 1e-06 -24.0433 -0.0549224 -1.38421 21.504 1.42109e-14 0 -131.032 -4.80958 -3.43942 1.59262 6.21256 -0.0138378 -6.95683 21.6164 5.30458 23.3657 -7.10543e-15 1e-06 -3.18055e-15 0 7.95139e-16 4.20345 4.44573 12.7354 172.377 0.21838 -87.1877 10.4683 2.12572 -3.51895 -175.751 -26.1896 62.7697 7.34534 0 -1.9e-06 -40.8295 58.1842 -10.6629 23.3863 1.9e-06 7.10543e-15 -50.0953 7.15625e-15 -5.06901e-15 21.504 3.8e-06 1e-06 -137.604 -20.2393 -7.41772 1.59262 6.21257 0.0138388 -9.55999 -9.16804 2.53814 23.3657 0 1e-06 180 -6.36111e-15 5.56597e-15 4.20337 4.4457 -12.7351 172.377 -0.218352 87.1876 -4.78895 3.85983 0.86083 -177.299 2.0854 17.384 4.22117 3.815e-05 -5.7e-06 31.1121 17.028 -22.6574 4.97505 3.8e-06 -6.7e-06 2.96101 29.1091 2.93014 4.7171 -1.145e-05 2.86e-05 8.82781e-32 -6.36111e-15 7.95139e-16 9.71734 -4.2e-05 -5.72e-05 1.59028e-15 0 2.38542e-15 8.26175 8.01e-05 5.7e-06 7.95139e-16 6.36111e-15 7.95139e-16 9.75986 -6.48e-05 2.86e-05 2.38542e-15 -3.18055e-15 -7.95139e-16 11.153 2.67e-05 -2.1e-05 -7.95139e-16 3.18055e-15 -0 10.3039 1.14e-05 4.2e-05 -7.95139e-16 -3.18055e-15 -0 -11.9878 -1.78568 10.19 170.606 3.62573 1.11034 8.44238 1.53e-05 4.2e-05 1.27222e-14 -1.98785e-16 -0 9.95005 7.6e-06 -2.86e-05 6.36111e-15 -8.94531e-16 8.94531e-16 9.43418 1.42109e-14 -4.58e-05 6.36111e-15 -1.88845e-15 1.04362e-15 9.71733 6.87e-05 0.0001106 6.36111e-15 -1.39149e-15 1.54058e-15 8.26175 -2.29e-05 -4.77e-05 6.36111e-15 -1.3418e-15 1.54058e-15 9.75994 2.86e-05 3.05e-05 4.67684e-32 -1.54058e-15 1.73937e-15 11.1529 -7.25e-05 -5.91e-05 1.27222e-14 -7.95139e-16 5.46658e-16 10.3039 -7.6e-06 7.10543e-15 9.54166e-15 -1.3418e-15 3.97569e-16 -1.14e-05 1.53e-05 9.94222 -136.686 30.2673 -165.553 25.9795 1e-06 0 -89.4949 0.740044 -0.958246 21.2087 1.9e-06 -1e-06 123.303 -1.08941 -33.8086 10.4341 -1.9e-06 1e-06 -27.9697 -3.74782 3.58868 5.66763 6.59832 0 77.4963 -3.11873 1.93386 8.62785 -1.42109e-14 0 -180 2.13892e-13 -9.54166e-15 5.67414 -2.36194 -0.530567 -75.8081 4.38708 5.33411 -2.62874 -3.42539 -3.14618 29.7499 1.82752 90.2264 1.53e-05 -1.53e-05 -9.94222 -141.231 -33.1007 163.57 25.9795 -1.42109e-14 1e-06 -69.4836 -1.52613 2.10198 21.2087 0 1.9e-06 114.443 -0.101951 37.2005 10.4341 -1.9e-06 -1e-06 -174.703 40.3442 155.081 5.66763 6.59831 0 100.373 30.9801 -43.069 8.62785 0 1.42109e-14 9.54166e-15 3.18055e-15 -1.59028e-15 5.67412 -2.36198 0.530356 -75.808 -4.38692 -5.33418 -2.62878 -3.42545 3.14601 29.7498 -1.82753 -90.2266
